<svg width="171" height="30" viewBox="0 0 171 30" fill="none" xmlns="http://www.w3.org/2000/svg">
<path d="M0.24 29L11.6 1.24H14.32L25.64 29H21.56L12.24 5.52H13.64L4.24 29H0.24ZM5.64 22.72V19.44H20.24V22.72H5.64ZM39.4916 29.4C38.0516 29.4 36.7449 29.1067 35.5716 28.52C34.4249 27.9067 33.5049 27.0667 32.8116 26C32.1182 24.9333 31.7316 23.72 31.6516 22.36V16.64C31.7316 15.2533 32.1182 14.04 32.8116 13C33.5316 11.9333 34.4649 11.1067 35.6116 10.52C36.7849 9.90667 38.0782 9.6 39.4916 9.6C41.2249 9.6 42.7849 10.04 44.1716 10.92C45.5849 11.8 46.6916 12.9867 47.4916 14.48C48.2916 15.9733 48.6916 17.6533 48.6916 19.52C48.6916 21.3867 48.2916 23.0667 47.4916 24.56C46.6916 26.0533 45.5849 27.24 44.1716 28.12C42.7849 28.9733 41.2249 29.4 39.4916 29.4ZM38.8916 26C40.0916 26 41.1449 25.72 42.0516 25.16C42.9582 24.6 43.6782 23.84 44.2116 22.88C44.7449 21.8933 45.0116 20.76 45.0116 19.48C45.0116 18.2267 44.7449 17.1067 44.2116 16.12C43.6782 15.1333 42.9582 14.3733 42.0516 13.84C41.1449 13.28 40.1049 13 38.9316 13C37.7316 13 36.6782 13.28 35.7716 13.84C34.8649 14.3733 34.1582 15.1333 33.6516 16.12C33.1449 17.1067 32.8916 18.24 32.8916 19.52C32.8916 20.7733 33.1316 21.8933 33.6116 22.88C34.1182 23.84 34.8249 24.6 35.7316 25.16C36.6649 25.72 37.7182 26 38.8916 26ZM29.4916 29V0.439998H33.0916V14.64L32.4116 19.24L33.0916 23.88V29H29.4916ZM61.4528 29.4C59.5861 29.4 57.9061 28.96 56.4128 28.08C54.9195 27.2 53.7328 26.0133 52.8528 24.52C51.9728 23 51.5328 21.3067 51.5328 19.44C51.5328 17.6 51.9728 15.9467 52.8528 14.48C53.7328 12.9867 54.9195 11.8 56.4128 10.92C57.9061 10.04 59.5861 9.6 61.4528 9.6C63.2928 9.6 64.9595 10.04 66.4528 10.92C67.9728 11.7733 69.1728 12.9467 70.0528 14.44C70.9328 15.9333 71.3728 17.6 71.3728 19.44C71.3728 21.3067 70.9328 23 70.0528 24.52C69.1728 26.0133 67.9728 27.2 66.4528 28.08C64.9595 28.96 63.2928 29.4 61.4528 29.4ZM61.4528 25.92C62.6528 25.92 63.7195 25.64 64.6528 25.08C65.5861 24.52 66.3195 23.76 66.8528 22.8C67.3861 21.8133 67.6528 20.6933 67.6528 19.44C67.6528 18.2133 67.3728 17.12 66.8128 16.16C66.2795 15.2 65.5461 14.4533 64.6128 13.92C63.7061 13.36 62.6528 13.08 61.4528 13.08C60.2528 13.08 59.1861 13.36 58.2528 13.92C57.3195 14.4533 56.5861 15.2 56.0528 16.16C55.5195 17.12 55.2528 18.2133 55.2528 19.44C55.2528 20.6933 55.5195 21.8133 56.0528 22.8C56.5861 23.76 57.3195 24.52 58.2528 25.08C59.1861 25.64 60.2528 25.92 61.4528 25.92ZM83.0691 29.4C81.5224 29.4 80.1224 29.0533 78.8691 28.36C77.6424 27.64 76.6824 26.6533 75.9891 25.4C75.2957 24.1467 74.9491 22.6933 74.9491 21.04V10H78.5491V20.88C78.5491 21.92 78.7224 22.8267 79.0691 23.6C79.4424 24.3467 79.9757 24.92 80.6691 25.32C81.3624 25.72 82.1757 25.92 83.1091 25.92C84.5224 25.92 85.6291 25.48 86.4291 24.6C87.2291 23.6933 87.6291 22.4533 87.6291 20.88V10H91.2291V21.04C91.2291 22.6933 90.8824 24.1467 90.1891 25.4C89.4957 26.6533 88.5357 27.64 87.3091 28.36C86.1091 29.0533 84.6957 29.4 83.0691 29.4ZM98.9741 29V2.04H102.574V29H98.9741ZM94.2941 13.28V10H107.254V13.28H94.2941ZM119.741 29V1.24H122.381L134.141 20.56H132.341L144.101 1.24H146.741V29H142.981V7.84L143.861 8.08L134.581 23.32H131.941L122.661 8.08L123.501 7.84V29H119.741ZM161.456 29.4C159.562 29.4 157.856 28.9733 156.336 28.12C154.816 27.24 153.616 26.0533 152.736 24.56C151.856 23.0667 151.416 21.3733 151.416 19.48C151.416 17.6133 151.842 15.9333 152.696 14.44C153.576 12.9467 154.749 11.7733 156.216 10.92C157.709 10.04 159.376 9.6 161.216 9.6C162.976 9.6 164.522 10 165.856 10.8C167.216 11.6 168.269 12.7067 169.016 14.12C169.789 15.5333 170.176 17.1333 170.176 18.92C170.176 19.1867 170.162 19.48 170.136 19.8C170.109 20.0933 170.056 20.44 169.976 20.84H153.936V17.84H168.056L166.736 19C166.736 17.72 166.509 16.64 166.056 15.76C165.602 14.8533 164.962 14.16 164.136 13.68C163.309 13.1733 162.309 12.92 161.136 12.92C159.909 12.92 158.829 13.1867 157.896 13.72C156.962 14.2533 156.242 15 155.736 15.96C155.229 16.92 154.976 18.0533 154.976 19.36C154.976 20.6933 155.242 21.8667 155.776 22.88C156.309 23.8667 157.069 24.64 158.056 25.2C159.042 25.7333 160.176 26 161.456 26C162.522 26 163.496 25.8133 164.376 25.44C165.282 25.0667 166.056 24.5067 166.696 23.76L169.016 26.12C168.109 27.1867 166.989 28 165.656 28.56C164.349 29.12 162.949 29.4 161.456 29.4Z" fill="black"/>
</svg>
