<svg width="154" height="27" viewBox="0 0 154 27" fill="none" xmlns="http://www.w3.org/2000/svg">
<path d="M0.116 26L10.34 1.016H12.788L22.976 26H19.304L10.916 4.868H12.176L3.716 26H0.116ZM4.976 20.348V17.396H18.116V20.348H4.976ZM35.4424 26.36C34.1464 26.36 32.9704 26.096 31.9144 25.568C30.8824 25.016 30.0544 24.26 29.4304 23.3C28.8064 22.34 28.4584 21.248 28.3864 20.024V14.876C28.4584 13.628 28.8064 12.536 29.4304 11.6C30.0784 10.64 30.9184 9.896 31.9504 9.368C33.0064 8.816 34.1704 8.54 35.4424 8.54C37.0024 8.54 38.4064 8.936 39.6544 9.728C40.9264 10.52 41.9224 11.588 42.6424 12.932C43.3624 14.276 43.7224 15.788 43.7224 17.468C43.7224 19.148 43.3624 20.66 42.6424 22.004C41.9224 23.348 40.9264 24.416 39.6544 25.208C38.4064 25.976 37.0024 26.36 35.4424 26.36ZM34.9024 23.3C35.9824 23.3 36.9304 23.048 37.7464 22.544C38.5624 22.04 39.2104 21.356 39.6904 20.492C40.1704 19.604 40.4104 18.584 40.4104 17.432C40.4104 16.304 40.1704 15.296 39.6904 14.408C39.2104 13.52 38.5624 12.836 37.7464 12.356C36.9304 11.852 35.9944 11.6 34.9384 11.6C33.8584 11.6 32.9104 11.852 32.0944 12.356C31.2784 12.836 30.6424 13.52 30.1864 14.408C29.7304 15.296 29.5024 16.316 29.5024 17.468C29.5024 18.596 29.7184 19.604 30.1504 20.492C30.6064 21.356 31.2424 22.04 32.0584 22.544C32.8984 23.048 33.8464 23.3 34.9024 23.3ZM26.4424 26V0.295998H29.6824V13.076L29.0704 17.216L29.6824 21.392V26H26.4424ZM55.2075 26.36C53.5275 26.36 52.0155 25.964 50.6715 25.172C49.3275 24.38 48.2595 23.312 47.4675 21.968C46.6755 20.6 46.2795 19.076 46.2795 17.396C46.2795 15.74 46.6755 14.252 47.4675 12.932C48.2595 11.588 49.3275 10.52 50.6715 9.728C52.0155 8.936 53.5275 8.54 55.2075 8.54C56.8635 8.54 58.3635 8.936 59.7075 9.728C61.0755 10.496 62.1555 11.552 62.9475 12.896C63.7395 14.24 64.1355 15.74 64.1355 17.396C64.1355 19.076 63.7395 20.6 62.9475 21.968C62.1555 23.312 61.0755 24.38 59.7075 25.172C58.3635 25.964 56.8635 26.36 55.2075 26.36ZM55.2075 23.228C56.2875 23.228 57.2475 22.976 58.0875 22.472C58.9275 21.968 59.5875 21.284 60.0675 20.42C60.5475 19.532 60.7875 18.524 60.7875 17.396C60.7875 16.292 60.5355 15.308 60.0315 14.444C59.5515 13.58 58.8915 12.908 58.0515 12.428C57.2355 11.924 56.2875 11.672 55.2075 11.672C54.1275 11.672 53.1675 11.924 52.3275 12.428C51.4875 12.908 50.8275 13.58 50.3475 14.444C49.8675 15.308 49.6275 16.292 49.6275 17.396C49.6275 18.524 49.8675 19.532 50.3475 20.42C50.8275 21.284 51.4875 21.968 52.3275 22.472C53.1675 22.976 54.1275 23.228 55.2075 23.228ZM74.6622 26.36C73.2702 26.36 72.0102 26.048 70.8822 25.424C69.7782 24.776 68.9142 23.888 68.2902 22.76C67.6662 21.632 67.3542 20.324 67.3542 18.836V8.9H70.5942V18.692C70.5942 19.628 70.7502 20.444 71.0622 21.14C71.3982 21.812 71.8782 22.328 72.5022 22.688C73.1262 23.048 73.8582 23.228 74.6982 23.228C75.9702 23.228 76.9662 22.832 77.6862 22.04C78.4062 21.224 78.7662 20.108 78.7662 18.692V8.9H82.0062V18.836C82.0062 20.324 81.6942 21.632 81.0702 22.76C80.4462 23.888 79.5822 24.776 78.4782 25.424C77.3982 26.048 76.1262 26.36 74.6622 26.36ZM88.9767 26V1.736H92.2167V26H88.9767ZM84.7647 11.852V8.9H96.4287V11.852H84.7647ZM107.667 26V1.016H110.043L120.627 18.404H119.007L129.591 1.016H131.967V26H128.583V6.956L129.375 7.172L121.023 20.888H118.647L110.295 7.172L111.051 6.956V26H107.667ZM145.21 26.36C143.506 26.36 141.97 25.976 140.602 25.208C139.234 24.416 138.154 23.348 137.362 22.004C136.57 20.66 136.174 19.136 136.174 17.432C136.174 15.752 136.558 14.24 137.326 12.896C138.118 11.552 139.174 10.496 140.494 9.728C141.838 8.936 143.338 8.54 144.994 8.54C146.578 8.54 147.97 8.9 149.17 9.62C150.394 10.34 151.342 11.336 152.014 12.608C152.71 13.88 153.058 15.32 153.058 16.928C153.058 17.168 153.046 17.432 153.022 17.72C152.998 17.984 152.95 18.296 152.878 18.656H138.442V15.956H151.15L149.962 17C149.962 15.848 149.758 14.876 149.35 14.084C148.942 13.268 148.366 12.644 147.622 12.212C146.878 11.756 145.978 11.528 144.922 11.528C143.818 11.528 142.846 11.768 142.006 12.248C141.166 12.728 140.518 13.4 140.062 14.264C139.606 15.128 139.378 16.148 139.378 17.324C139.378 18.524 139.618 19.58 140.098 20.492C140.578 21.38 141.262 22.076 142.15 22.58C143.038 23.06 144.058 23.3 145.21 23.3C146.17 23.3 147.046 23.132 147.838 22.796C148.654 22.46 149.35 21.956 149.926 21.284L152.014 23.408C151.198 24.368 150.19 25.1 148.99 25.604C147.814 26.108 146.554 26.36 145.21 26.36Z" fill="black"/>
</svg>
