<svg width="205" height="36" viewBox="0 0 205 36" fill="none" xmlns="http://www.w3.org/2000/svg">
<path d="M0.488 35L14.12 1.688H17.384L30.968 35H26.072L14.888 6.824H16.568L5.288 35H0.488ZM6.968 27.464V23.528H24.488V27.464H6.968ZM47.5899 35.48C45.8619 35.48 44.2939 35.128 42.8859 34.424C41.5099 33.688 40.4059 32.68 39.5739 31.4C38.7419 30.12 38.2779 28.664 38.1819 27.032V20.168C38.2779 18.504 38.7419 17.048 39.5739 15.8C40.4379 14.52 41.5579 13.528 42.9339 12.824C44.3419 12.088 45.8939 11.72 47.5899 11.72C49.6699 11.72 51.5419 12.248 53.2059 13.304C54.9019 14.36 56.2299 15.784 57.1899 17.576C58.1499 19.368 58.6299 21.384 58.6299 23.624C58.6299 25.864 58.1499 27.88 57.1899 29.672C56.2299 31.464 54.9019 32.888 53.2059 33.944C51.5419 34.968 49.6699 35.48 47.5899 35.48ZM46.8699 31.4C48.3099 31.4 49.5739 31.064 50.6619 30.392C51.7499 29.72 52.6139 28.808 53.2539 27.656C53.8939 26.472 54.2139 25.112 54.2139 23.576C54.2139 22.072 53.8939 20.728 53.2539 19.544C52.6139 18.36 51.7499 17.448 50.6619 16.808C49.5739 16.136 48.3259 15.8 46.9179 15.8C45.4779 15.8 44.2139 16.136 43.1259 16.808C42.0379 17.448 41.1899 18.36 40.5819 19.544C39.9739 20.728 39.6699 22.088 39.6699 23.624C39.6699 25.128 39.9579 26.472 40.5339 27.656C41.1419 28.808 41.9899 29.72 43.0779 30.392C44.1979 31.064 45.4619 31.4 46.8699 31.4ZM35.5899 35V0.727998H39.9099V17.768L39.0939 23.288L39.9099 28.856V35H35.5899ZM73.9434 35.48C71.7034 35.48 69.6874 34.952 67.8954 33.896C66.1034 32.84 64.6794 31.416 63.6234 29.624C62.5674 27.8 62.0394 25.768 62.0394 23.528C62.0394 21.32 62.5674 19.336 63.6234 17.576C64.6794 15.784 66.1034 14.36 67.8954 13.304C69.6874 12.248 71.7034 11.72 73.9434 11.72C76.1514 11.72 78.1514 12.248 79.9434 13.304C81.7674 14.328 83.2074 15.736 84.2634 17.528C85.3194 19.32 85.8474 21.32 85.8474 23.528C85.8474 25.768 85.3194 27.8 84.2634 29.624C83.2074 31.416 81.7674 32.84 79.9434 33.896C78.1514 34.952 76.1514 35.48 73.9434 35.48ZM73.9434 31.304C75.3834 31.304 76.6634 30.968 77.7834 30.296C78.9034 29.624 79.7834 28.712 80.4234 27.56C81.0634 26.376 81.3834 25.032 81.3834 23.528C81.3834 22.056 81.0474 20.744 80.3754 19.592C79.7354 18.44 78.8554 17.544 77.7354 16.904C76.6474 16.232 75.3834 15.896 73.9434 15.896C72.5034 15.896 71.2234 16.232 70.1034 16.904C68.9834 17.544 68.1034 18.44 67.4634 19.592C66.8234 20.744 66.5034 22.056 66.5034 23.528C66.5034 25.032 66.8234 26.376 67.4634 27.56C68.1034 28.712 68.9834 29.624 70.1034 30.296C71.2234 30.968 72.5034 31.304 73.9434 31.304ZM99.8829 35.48C98.0269 35.48 96.3469 35.064 94.8429 34.232C93.3709 33.368 92.2189 32.184 91.3869 30.68C90.5549 29.176 90.1389 27.432 90.1389 25.448V12.2H94.4589V25.256C94.4589 26.504 94.6669 27.592 95.0829 28.52C95.5309 29.416 96.1709 30.104 97.0029 30.584C97.8349 31.064 98.8109 31.304 99.9309 31.304C101.627 31.304 102.955 30.776 103.915 29.72C104.875 28.632 105.355 27.144 105.355 25.256V12.2H109.675V25.448C109.675 27.432 109.259 29.176 108.427 30.68C107.595 32.184 106.443 33.368 104.971 34.232C103.531 35.064 101.835 35.48 99.8829 35.48ZM118.969 35V2.648H123.289V35H118.969ZM113.353 16.136V12.2H128.905V16.136H113.353ZM143.889 35V1.688H147.057L161.169 24.872H159.009L173.121 1.688H176.289V35H171.777V9.608L172.833 9.896L161.697 28.184H158.529L147.393 9.896L148.401 9.608V35H143.889ZM193.947 35.48C191.675 35.48 189.627 34.968 187.803 33.944C185.979 32.888 184.539 31.464 183.483 29.672C182.427 27.88 181.899 25.848 181.899 23.576C181.899 21.336 182.411 19.32 183.435 17.528C184.491 15.736 185.899 14.328 187.659 13.304C189.451 12.248 191.451 11.72 193.659 11.72C195.771 11.72 197.627 12.2 199.227 13.16C200.859 14.12 202.123 15.448 203.019 17.144C203.947 18.84 204.411 20.76 204.411 22.904C204.411 23.224 204.395 23.576 204.363 23.96C204.331 24.312 204.267 24.728 204.171 25.208H184.923V21.608H201.867L200.283 23C200.283 21.464 200.011 20.168 199.467 19.112C198.923 18.024 198.155 17.192 197.163 16.616C196.171 16.008 194.971 15.704 193.563 15.704C192.091 15.704 190.795 16.024 189.675 16.664C188.555 17.304 187.691 18.2 187.083 19.352C186.475 20.504 186.171 21.864 186.171 23.432C186.171 25.032 186.491 26.44 187.131 27.656C187.771 28.84 188.683 29.768 189.867 30.44C191.051 31.08 192.411 31.4 193.947 31.4C195.227 31.4 196.395 31.176 197.451 30.728C198.539 30.28 199.467 29.608 200.235 28.712L203.019 31.544C201.931 32.824 200.587 33.8 198.987 34.472C197.419 35.144 195.739 35.48 193.947 35.48Z" fill="black"/>
</svg>
